<?xml version="1.0" standalone="no"?><!-- Generator: Gravit.io --><svg xmlns="http://www.w3.org/2000/svg" xmlns:xlink="http://www.w3.org/1999/xlink" style="isolation:isolate" viewBox="0 0 40 10" width="40px" height="10px"><defs><clipPath id="_clipPath_ouwZ7iV3sf6HhRc07uuGZPfg7iea6i2m"><rect width="40" height="10"/></clipPath></defs><g clip-path="url(#_clipPath_ouwZ7iV3sf6HhRc07uuGZPfg7iea6i2m)"><g><g><path d=" M 22.611 1.409 C 22.598 1.394 22.588 1.383 22.577 1.372 C 22.273 1.067 21.969 0.763 21.664 0.459 C 21.51 0.303 21.307 0.304 21.149 0.461 C 19.163 2.446 17.177 4.432 15.192 6.419 C 15.033 6.576 15.034 6.778 15.193 6.938 C 15.466 7.211 15.74 7.484 16.013 7.758 C 16.054 7.799 16.091 7.841 16.134 7.887 C 16.236 7.77 16.35 7.688 16.5 7.672 C 16.651 7.657 16.785 7.701 16.897 7.805 C 16.991 7.893 17.042 8.002 17.052 8.13 C 17.066 8.318 16.981 8.463 16.842 8.584 C 16.86 8.602 16.872 8.615 16.885 8.631 C 17.185 8.929 17.484 9.229 17.783 9.527 C 17.954 9.698 18.151 9.7 18.322 9.528 C 20.302 7.549 22.283 5.567 24.263 3.588 C 24.429 3.422 24.429 3.223 24.263 3.057 C 23.96 2.754 23.659 2.451 23.355 2.148 C 23.342 2.136 23.331 2.125 23.315 2.111 C 23.213 2.226 23.098 2.307 22.946 2.319 C 22.794 2.333 22.661 2.286 22.551 2.181 C 22.46 2.093 22.411 1.985 22.402 1.858 C 22.389 1.672 22.473 1.528 22.611 1.409 Z " fill="rgb(255,255,255)"/><path d=" M 22.611 1.409 C 22.472 1.529 22.388 1.672 22.401 1.859 C 22.411 1.986 22.46 2.094 22.55 2.182 C 22.659 2.287 22.792 2.334 22.945 2.32 C 23.097 2.307 23.213 2.227 23.314 2.112 C 23.33 2.126 23.341 2.137 23.354 2.149 C 23.658 2.452 23.959 2.754 24.262 3.058 C 24.428 3.224 24.428 3.423 24.262 3.589 C 22.283 5.568 20.301 7.549 18.321 9.529 C 18.151 9.701 17.953 9.699 17.782 9.528 C 17.483 9.229 17.184 8.929 16.884 8.632 C 16.871 8.616 16.859 8.603 16.841 8.585 C 16.98 8.464 17.065 8.319 17.051 8.131 C 17.041 8.003 16.99 7.894 16.896 7.806 C 16.784 7.702 16.65 7.659 16.499 7.673 C 16.349 7.689 16.235 7.771 16.133 7.888 C 16.09 7.842 16.052 7.8 16.012 7.759 C 15.739 7.485 15.465 7.212 15.192 6.939 C 15.033 6.78 15.032 6.578 15.191 6.42 C 17.176 4.433 19.162 2.448 21.148 0.462 C 21.305 0.305 21.508 0.304 21.663 0.46 C 21.968 0.763 22.272 1.068 22.576 1.373 C 22.588 1.382 22.599 1.394 22.611 1.409 Z  M 22.35 1.41 C 22.34 1.402 22.336 1.395 22.329 1.389 C 22.064 1.123 21.798 0.856 21.532 0.591 C 21.45 0.51 21.364 0.511 21.282 0.594 C 19.297 2.579 17.312 4.565 15.327 6.549 C 15.24 6.636 15.24 6.72 15.327 6.807 C 15.575 7.054 15.823 7.302 16.07 7.55 C 16.093 7.572 16.112 7.6 16.131 7.624 C 16.482 7.384 16.843 7.488 17.036 7.677 C 17.218 7.856 17.353 8.216 17.107 8.584 C 17.119 8.597 17.132 8.61 17.146 8.623 C 17.403 8.881 17.661 9.139 17.918 9.396 C 18.016 9.494 18.092 9.494 18.189 9.396 C 18.768 8.817 19.347 8.238 19.925 7.66 C 21.328 6.258 22.73 4.855 24.133 3.452 C 24.223 3.362 24.222 3.281 24.133 3.191 C 23.872 2.93 23.613 2.67 23.353 2.411 C 23.34 2.398 23.326 2.386 23.313 2.374 C 22.986 2.601 22.622 2.516 22.414 2.31 C 22.203 2.1 22.127 1.729 22.35 1.41 Z " fill-rule="evenodd" fill="rgb(181,18,27)"/><path d=" M 22.35 3.431 C 22.25 3.43 22.152 3.336 22.145 3.237 C 22.139 3.144 22.207 3.082 22.299 3.099 C 22.383 3.114 22.461 3.193 22.477 3.276 C 22.492 3.364 22.438 3.432 22.35 3.431 Z " fill-rule="evenodd" fill="rgb(255,255,255)"/><path d=" M 22.689 3.508 C 22.79 3.512 22.886 3.609 22.89 3.711 C 22.89 3.794 22.827 3.853 22.744 3.841 C 22.652 3.829 22.572 3.752 22.556 3.658 C 22.541 3.571 22.6 3.504 22.689 3.508 Z " fill-rule="evenodd" fill="rgb(255,255,255)"/><path d=" M 23.174 4.253 C 23.073 4.253 22.973 4.158 22.966 4.057 C 22.963 3.972 23.018 3.914 23.103 3.919 C 23.206 3.925 23.301 4.025 23.301 4.125 C 23.301 4.202 23.25 4.253 23.174 4.253 Z " fill-rule="evenodd" fill="rgb(255,255,255)"/><path d=" M 21.245 2.072 C 21.244 2.153 21.181 2.208 21.101 2.197 C 21.005 2.184 20.924 2.103 20.911 2.009 C 20.9 1.928 20.954 1.865 21.034 1.863 C 21.141 1.861 21.246 1.966 21.245 2.072 Z " fill-rule="evenodd" fill="rgb(255,255,255)"/><path d=" M 21.527 2.609 C 21.429 2.608 21.331 2.515 21.322 2.416 C 21.314 2.322 21.383 2.26 21.475 2.276 C 21.562 2.291 21.641 2.37 21.654 2.457 C 21.668 2.544 21.613 2.609 21.527 2.609 Z " fill-rule="evenodd" fill="rgb(255,255,255)"/><path d=" M 22.066 2.896 C 22.066 2.976 22.002 3.031 21.92 3.02 C 21.828 3.007 21.746 2.925 21.733 2.831 C 21.722 2.75 21.775 2.687 21.857 2.686 C 21.965 2.685 22.068 2.788 22.066 2.896 Z " fill-rule="evenodd" fill="rgb(255,255,255)"/><path d=" M 20.5 1.58 C 20.5 1.496 20.565 1.44 20.651 1.454 C 20.737 1.468 20.818 1.547 20.832 1.634 C 20.848 1.726 20.785 1.793 20.691 1.787 C 20.593 1.778 20.5 1.68 20.5 1.58 Z " fill-rule="evenodd" fill="rgb(255,255,255)"/></g></g><g><mask id="_mask_zK1iwkZ5P5xjGsDq0q8C47bZfsQygpzI" x="-200%" y="-200%" width="400%" height="400%"><rect x="-200%" y="-200%" width="400%" height="400%" style="fill:white;"/><path d=" M 5.194 2.623 L 5.194 3.581 L 5.939 3.581 L 5.939 4.347 L 5.194 4.347 L 5.194 5.557 C 5.194 5.961 5.29 6.147 5.604 6.147 C 5.734 6.147 5.836 6.133 5.912 6.119 L 5.918 6.907 C 5.782 6.959 5.536 6.994 5.241 6.994 C 4.906 6.994 4.625 6.878 4.462 6.707 C 4.271 6.509 4.174 6.187 4.174 5.716 L 4.174 4.347 L 3.73 4.347 L 3.73 3.581 L 4.175 3.581 L 4.175 2.856 L 5.194 2.623 Z " fill="black" stroke="none"/></mask><path d=" M 5.194 2.623 L 5.194 3.581 L 5.939 3.581 L 5.939 4.347 L 5.194 4.347 L 5.194 5.557 C 5.194 5.961 5.29 6.147 5.604 6.147 C 5.734 6.147 5.836 6.133 5.912 6.119 L 5.918 6.907 C 5.782 6.959 5.536 6.994 5.241 6.994 C 4.906 6.994 4.625 6.878 4.462 6.707 C 4.271 6.509 4.174 6.187 4.174 5.716 L 4.174 4.347 L 3.73 4.347 L 3.73 3.581 L 4.175 3.581 L 4.175 2.856 L 5.194 2.623 Z " fill="rgb(181,18,27)" mask="url(#_mask_zK1iwkZ5P5xjGsDq0q8C47bZfsQygpzI)" vector-effect="non-scaling-stroke" stroke-width="0.6" stroke="rgb(255,255,255)" stroke-linejoin="miter" stroke-linecap="butt" stroke-miterlimit="10"/><path d=" M 5.194 2.623 L 5.194 3.581 L 5.939 3.581 L 5.939 4.347 L 5.194 4.347 L 5.194 5.557 C 5.194 5.961 5.29 6.147 5.604 6.147 C 5.734 6.147 5.836 6.133 5.912 6.119 L 5.918 6.907 C 5.782 6.959 5.536 6.994 5.241 6.994 C 4.906 6.994 4.625 6.878 4.462 6.707 C 4.271 6.509 4.174 6.187 4.174 5.716 L 4.174 4.347 L 3.73 4.347 L 3.73 3.581 L 4.175 3.581 L 4.175 2.856 L 5.194 2.623 Z " fill="rgb(181,18,27)"/><path d=" M 7.618 2.65 C 7.618 2.937 7.399 3.169 7.057 3.169 C 6.728 3.169 6.509 2.937 6.516 2.65 C 6.509 2.349 6.729 2.124 7.064 2.124 C 7.399 2.124 7.612 2.349 7.618 2.65 Z  M 6.544 6.926 L 6.544 3.581 L 7.583 3.581 L 7.583 6.926 L 6.544 6.926 Z " fill="rgb(181,18,27)" vector-effect="non-scaling-stroke" stroke-width="0.3" stroke="rgb(255,255,255)" stroke-linejoin="miter" stroke-linecap="butt" stroke-miterlimit="10"/><mask id="_mask_m3Z8WAV5377CpjY1PgE9JuzSJOeEIw5H" x="-200%" y="-200%" width="400%" height="400%"><rect x="-200%" y="-200%" width="400%" height="400%" style="fill:white;"/><path d=" M 10.93 6.845 C 10.746 6.926 10.397 6.994 10 6.994 C 8.919 6.994 8.229 6.338 8.229 5.284 C 8.229 4.306 8.899 3.505 10.144 3.505 C 10.418 3.505 10.719 3.554 10.938 3.636 L 10.773 4.408 C 10.65 4.353 10.466 4.305 10.192 4.305 C 9.645 4.305 9.288 4.695 9.296 5.242 C 9.296 5.859 9.707 6.18 10.213 6.18 C 10.459 6.18 10.651 6.139 10.808 6.077 L 10.93 6.845 Z " fill="black" stroke="none"/></mask><path d=" M 10.93 6.845 C 10.746 6.926 10.397 6.994 10 6.994 C 8.919 6.994 8.229 6.338 8.229 5.284 C 8.229 4.306 8.899 3.505 10.144 3.505 C 10.418 3.505 10.719 3.554 10.938 3.636 L 10.773 4.408 C 10.65 4.353 10.466 4.305 10.192 4.305 C 9.645 4.305 9.288 4.695 9.296 5.242 C 9.296 5.859 9.707 6.18 10.213 6.18 C 10.459 6.18 10.651 6.139 10.808 6.077 L 10.93 6.845 Z " fill="rgb(181,18,27)" mask="url(#_mask_m3Z8WAV5377CpjY1PgE9JuzSJOeEIw5H)" vector-effect="non-scaling-stroke" stroke-width="0.6" stroke="rgb(255,255,255)" stroke-linejoin="miter" stroke-linecap="butt" stroke-miterlimit="10"/><path d=" M 10.93 6.845 C 10.746 6.926 10.397 6.994 10 6.994 C 8.919 6.994 8.229 6.338 8.229 5.284 C 8.229 4.306 8.899 3.505 10.144 3.505 C 10.418 3.505 10.719 3.554 10.938 3.636 L 10.773 4.408 C 10.65 4.353 10.466 4.305 10.192 4.305 C 9.645 4.305 9.288 4.695 9.296 5.242 C 9.296 5.859 9.707 6.18 10.213 6.18 C 10.459 6.18 10.651 6.139 10.808 6.077 L 10.93 6.845 Z " fill="rgb(181,18,27)"/><mask id="_mask_p1tMOPkLe5g8pRLq2SJMcWFfGtTBHUG4" x="-200%" y="-200%" width="400%" height="400%"><rect x="-200%" y="-200%" width="400%" height="400%" style="fill:white;"/><path d=" M 12.548 4.99 L 12.563 4.99 C 12.637 4.853 12.72 4.717 12.802 4.587 L 13.479 3.581 L 14.731 3.581 L 13.532 4.936 L 14.901 6.926 L 13.621 6.926 L 12.814 5.551 L 12.548 5.88 L 12.548 6.926 L 11.509 6.926 L 11.509 2.069 L 12.548 2.069 L 12.548 4.99 Z " fill="black" stroke="none"/></mask><path d=" M 12.548 4.99 L 12.563 4.99 C 12.637 4.853 12.72 4.717 12.802 4.587 L 13.479 3.581 L 14.731 3.581 L 13.532 4.936 L 14.901 6.926 L 13.621 6.926 L 12.814 5.551 L 12.548 5.88 L 12.548 6.926 L 11.509 6.926 L 11.509 2.069 L 12.548 2.069 L 12.548 4.99 Z " fill="rgb(181,18,27)" mask="url(#_mask_p1tMOPkLe5g8pRLq2SJMcWFfGtTBHUG4)" vector-effect="non-scaling-stroke" stroke-width="0.6" stroke="rgb(255,255,255)" stroke-linejoin="miter" stroke-linecap="butt" stroke-miterlimit="10"/><path d=" M 12.548 4.99 L 12.563 4.99 C 12.637 4.853 12.72 4.717 12.802 4.587 L 13.479 3.581 L 14.731 3.581 L 13.532 4.936 L 14.901 6.926 L 13.621 6.926 L 12.814 5.551 L 12.548 5.88 L 12.548 6.926 L 11.509 6.926 L 11.509 2.069 L 12.548 2.069 L 12.548 4.99 Z " fill="rgb(181,18,27)"/><path d=" M 15.924 5.585 C 15.959 6.017 16.382 6.22 16.868 6.22 C 17.224 6.22 17.512 6.173 17.792 6.084 L 17.928 6.788 C 17.585 6.926 17.169 6.994 16.717 6.994 C 15.582 6.994 14.932 6.338 14.932 5.29 C 14.932 4.441 15.459 3.504 16.621 3.504 C 17.702 3.504 18.112 4.346 18.112 5.175 C 18.112 5.352 18.091 5.508 18.078 5.585 L 15.924 5.585 Z  M 17.148 4.874 C 17.148 4.62 17.039 4.196 16.561 4.196 C 16.123 4.196 15.944 4.593 15.918 4.874 L 17.148 4.874 Z " fill="rgb(181,18,27)" vector-effect="non-scaling-stroke" stroke-width="0.3" stroke="rgb(255,255,255)" stroke-linejoin="miter" stroke-linecap="butt" stroke-miterlimit="10"/><mask id="_mask_tjA5O1oPOdQe270WEXMvGjcQmai5zJjD" x="-200%" y="-200%" width="400%" height="400%"><rect x="-200%" y="-200%" width="400%" height="400%" style="fill:white;"/><path d=" M 19.903 2.623 L 19.903 3.581 L 20.649 3.581 L 20.649 4.347 L 19.903 4.347 L 19.903 5.557 C 19.903 5.961 19.997 6.147 20.313 6.147 C 20.442 6.147 20.544 6.133 20.62 6.119 L 20.628 6.907 C 20.491 6.96 20.244 6.995 19.952 6.995 C 19.616 6.995 19.335 6.879 19.171 6.708 C 18.979 6.51 18.884 6.188 18.884 5.717 L 18.884 4.347 L 18.44 4.347 L 18.44 3.581 L 18.884 3.581 L 18.884 2.856 L 19.903 2.623 Z " fill="black" stroke="none"/></mask><path d=" M 19.903 2.623 L 19.903 3.581 L 20.649 3.581 L 20.649 4.347 L 19.903 4.347 L 19.903 5.557 C 19.903 5.961 19.997 6.147 20.313 6.147 C 20.442 6.147 20.544 6.133 20.62 6.119 L 20.628 6.907 C 20.491 6.96 20.244 6.995 19.952 6.995 C 19.616 6.995 19.335 6.879 19.171 6.708 C 18.979 6.51 18.884 6.188 18.884 5.717 L 18.884 4.347 L 18.44 4.347 L 18.44 3.581 L 18.884 3.581 L 18.884 2.856 L 19.903 2.623 Z " fill="rgb(181,18,27)" mask="url(#_mask_tjA5O1oPOdQe270WEXMvGjcQmai5zJjD)" vector-effect="non-scaling-stroke" stroke-width="0.6" stroke="rgb(255,255,255)" stroke-linejoin="miter" stroke-linecap="butt" stroke-miterlimit="10"/><path d=" M 19.903 2.623 L 19.903 3.581 L 20.649 3.581 L 20.649 4.347 L 19.903 4.347 L 19.903 5.557 C 19.903 5.961 19.997 6.147 20.313 6.147 C 20.442 6.147 20.544 6.133 20.62 6.119 L 20.628 6.907 C 20.491 6.96 20.244 6.995 19.952 6.995 C 19.616 6.995 19.335 6.879 19.171 6.708 C 18.979 6.51 18.884 6.188 18.884 5.717 L 18.884 4.347 L 18.44 4.347 L 18.44 3.581 L 18.884 3.581 L 18.884 2.856 L 19.903 2.623 Z " fill="rgb(181,18,27)"/><mask id="_mask_UTWTM68Z2SaDIf2eVaoBanmZY7NFCz6q" x="-200%" y="-200%" width="400%" height="400%"><rect x="-200%" y="-200%" width="400%" height="400%" style="fill:white;"/><path d=" M 21.122 6.373 C 21.122 6.003 21.375 5.735 21.736 5.735 C 22.1 5.735 22.346 5.994 22.346 6.373 C 22.346 6.734 22.1 7 21.732 7 C 21.375 7 21.122 6.734 21.122 6.373 Z " fill="black" stroke="none"/></mask><path d=" M 21.122 6.373 C 21.122 6.003 21.375 5.735 21.736 5.735 C 22.1 5.735 22.346 5.994 22.346 6.373 C 22.346 6.734 22.1 7 21.732 7 C 21.375 7 21.122 6.734 21.122 6.373 Z " fill="rgb(181,18,27)" mask="url(#_mask_UTWTM68Z2SaDIf2eVaoBanmZY7NFCz6q)" vector-effect="non-scaling-stroke" stroke-width="0.6" stroke="rgb(255,255,255)" stroke-linejoin="miter" stroke-linecap="butt" stroke-miterlimit="10"/><path d=" M 21.122 6.373 C 21.122 6.003 21.375 5.735 21.736 5.735 C 22.1 5.735 22.346 5.994 22.346 6.373 C 22.346 6.734 22.1 7 21.732 7 C 21.375 7 21.122 6.734 21.122 6.373 Z " fill="rgb(181,18,27)"/><mask id="_mask_jhou89I5PyTI5PKCm6sBlqzcphoXFjXQ" x="-200%" y="-200%" width="400%" height="400%"><rect x="-200%" y="-200%" width="400%" height="400%" style="fill:white;"/><path d=" M 25.489 6.845 C 25.304 6.926 24.955 6.994 24.558 6.994 C 23.477 6.994 22.787 6.338 22.787 5.284 C 22.787 4.306 23.457 3.505 24.703 3.505 C 24.975 3.505 25.277 3.554 25.496 3.636 L 25.331 4.409 C 25.208 4.354 25.023 4.306 24.749 4.306 C 24.202 4.306 23.847 4.696 23.854 5.243 C 23.854 5.86 24.265 6.181 24.769 6.181 C 25.016 6.181 25.207 6.14 25.366 6.078 L 25.489 6.845 Z " fill="black" stroke="none"/></mask><path d=" M 25.489 6.845 C 25.304 6.926 24.955 6.994 24.558 6.994 C 23.477 6.994 22.787 6.338 22.787 5.284 C 22.787 4.306 23.457 3.505 24.703 3.505 C 24.975 3.505 25.277 3.554 25.496 3.636 L 25.331 4.409 C 25.208 4.354 25.023 4.306 24.749 4.306 C 24.202 4.306 23.847 4.696 23.854 5.243 C 23.854 5.86 24.265 6.181 24.769 6.181 C 25.016 6.181 25.207 6.14 25.366 6.078 L 25.489 6.845 Z " fill="rgb(181,18,27)" mask="url(#_mask_jhou89I5PyTI5PKCm6sBlqzcphoXFjXQ)" vector-effect="non-scaling-stroke" stroke-width="0.6" stroke="rgb(255,255,255)" stroke-linejoin="miter" stroke-linecap="butt" stroke-miterlimit="10"/><path d=" M 25.489 6.845 C 25.304 6.926 24.955 6.994 24.558 6.994 C 23.477 6.994 22.787 6.338 22.787 5.284 C 22.787 4.306 23.457 3.505 24.703 3.505 C 24.975 3.505 25.277 3.554 25.496 3.636 L 25.331 4.409 C 25.208 4.354 25.023 4.306 24.749 4.306 C 24.202 4.306 23.847 4.696 23.854 5.243 C 23.854 5.86 24.265 6.181 24.769 6.181 C 25.016 6.181 25.207 6.14 25.366 6.078 L 25.489 6.845 Z " fill="rgb(181,18,27)"/><path d=" M 29.296 5.216 C 29.296 6.441 28.426 7 27.531 7 C 26.552 7 25.799 6.357 25.799 5.278 C 25.799 4.196 26.511 3.505 27.586 3.505 C 28.612 3.504 29.296 4.21 29.296 5.216 Z  M 26.873 5.249 C 26.873 5.824 27.113 6.256 27.558 6.256 C 27.962 6.256 28.22 5.852 28.22 5.249 C 28.22 4.751 28.03 4.244 27.558 4.244 C 27.058 4.244 26.873 4.757 26.873 5.249 Z " fill="rgb(181,18,27)" vector-effect="non-scaling-stroke" stroke-width="0.3" stroke="rgb(255,255,255)" stroke-linejoin="miter" stroke-linecap="butt" stroke-miterlimit="10"/><mask id="_mask_U4hcp3sihkS6XKxlzvEeHKibdN76pC6f" x="-200%" y="-200%" width="400%" height="400%"><rect x="-200%" y="-200%" width="400%" height="400%" style="fill:white;"/><path d=" M 29.942 4.648 C 29.942 4.231 29.93 3.875 29.916 3.581 L 30.791 3.581 L 30.839 4.032 L 30.86 4.032 C 31.006 3.821 31.298 3.505 31.873 3.505 C 32.304 3.505 32.645 3.724 32.79 4.074 L 32.803 4.074 C 32.927 3.902 33.076 3.765 33.236 3.67 C 33.421 3.561 33.626 3.504 33.872 3.504 C 34.515 3.504 35 3.956 35 4.956 L 35 6.926 L 33.988 6.926 L 33.988 5.107 C 33.988 4.621 33.83 4.34 33.495 4.34 C 33.257 4.34 33.085 4.505 33.016 4.703 C 32.988 4.778 32.975 4.889 32.975 4.972 L 32.975 6.927 L 31.963 6.927 L 31.963 5.052 C 31.963 4.627 31.812 4.339 31.484 4.339 C 31.217 4.339 31.06 4.545 30.998 4.716 C 30.964 4.797 30.958 4.893 30.958 4.975 L 30.958 6.925 L 29.944 6.925 L 29.944 4.648 L 29.942 4.648 Z " fill="black" stroke="none"/></mask><path d=" M 29.942 4.648 C 29.942 4.231 29.93 3.875 29.916 3.581 L 30.791 3.581 L 30.839 4.032 L 30.86 4.032 C 31.006 3.821 31.298 3.505 31.873 3.505 C 32.304 3.505 32.645 3.724 32.79 4.074 L 32.803 4.074 C 32.927 3.902 33.076 3.765 33.236 3.67 C 33.421 3.561 33.626 3.504 33.872 3.504 C 34.515 3.504 35 3.956 35 4.956 L 35 6.926 L 33.988 6.926 L 33.988 5.107 C 33.988 4.621 33.83 4.34 33.495 4.34 C 33.257 4.34 33.085 4.505 33.016 4.703 C 32.988 4.778 32.975 4.889 32.975 4.972 L 32.975 6.927 L 31.963 6.927 L 31.963 5.052 C 31.963 4.627 31.812 4.339 31.484 4.339 C 31.217 4.339 31.06 4.545 30.998 4.716 C 30.964 4.797 30.958 4.893 30.958 4.975 L 30.958 6.925 L 29.944 6.925 L 29.944 4.648 L 29.942 4.648 Z " fill="rgb(181,18,27)" mask="url(#_mask_U4hcp3sihkS6XKxlzvEeHKibdN76pC6f)" vector-effect="non-scaling-stroke" stroke-width="0.6" stroke="rgb(255,255,255)" stroke-linejoin="miter" stroke-linecap="butt" stroke-miterlimit="10"/><path d=" M 29.942 4.648 C 29.942 4.231 29.93 3.875 29.916 3.581 L 30.791 3.581 L 30.839 4.032 L 30.86 4.032 C 31.006 3.821 31.298 3.505 31.873 3.505 C 32.304 3.505 32.645 3.724 32.79 4.074 L 32.803 4.074 C 32.927 3.902 33.076 3.765 33.236 3.67 C 33.421 3.561 33.626 3.504 33.872 3.504 C 34.515 3.504 35 3.956 35 4.956 L 35 6.926 L 33.988 6.926 L 33.988 5.107 C 33.988 4.621 33.83 4.34 33.495 4.34 C 33.257 4.34 33.085 4.505 33.016 4.703 C 32.988 4.778 32.975 4.889 32.975 4.972 L 32.975 6.927 L 31.963 6.927 L 31.963 5.052 C 31.963 4.627 31.812 4.339 31.484 4.339 C 31.217 4.339 31.06 4.545 30.998 4.716 C 30.964 4.797 30.958 4.893 30.958 4.975 L 30.958 6.925 L 29.944 6.925 L 29.944 4.648 L 29.942 4.648 Z " fill="rgb(181,18,27)"/></g></g></svg>