<?xml version="1.0" encoding="utf-8"?>
<!-- Generator: Adobe Illustrator 16.0.0, SVG Export Plug-In . SVG Version: 6.00 Build 0)  -->
<!DOCTYPE svg PUBLIC "-//W3C//DTD SVG 1.1//EN" "http://www.w3.org/Graphics/SVG/1.1/DTD/svg11.dtd">
<svg version="1.1" id="Layer_1" xmlns="http://www.w3.org/2000/svg" xmlns:xlink="http://www.w3.org/1999/xlink" x="0px" y="0px"
	 width="40px" height="40px" viewBox="0 0 40 40" enable-background="new 0 0 40 40" xml:space="preserve">
<g>
	<g>
		<path fill="#FFFFFF" d="M29.784,8.667c-1.021,0.401-1.973,0.807-2.945,1.146c-0.996,0.348-1.933,0.271-2.699-0.569
			c-0.389-0.426-0.797-0.835-1.125-1.18c0.085-0.097,0.271-0.261,0.399-0.46c0.241-0.375,0.362-0.964,0.693-1.113
			c0.57-0.259,0.412-0.547,0.29-0.923c-0.044-0.138-0.121-0.304-0.082-0.423c0.157-0.472,0.358-0.931,0.556-1.436
			c0.099,0.113,0.223,0.256,0.338,0.388c0.469-1.063,0.354-1.738-0.429-2.526c-0.067-0.069-0.061-0.208-0.101-0.309
			c-0.031-0.079-0.064-0.194-0.124-0.217c-0.678-0.247-1.168-0.898-1.981-0.87c-0.347,0.013-0.723-0.043-1.046-0.169
			c-0.7-0.271-1.343,0.042-1.977,0.183c-0.381,0.085-0.834,0.451-0.995,0.809c-0.486,1.069-0.757,2.212-0.601,3.406
			c0.035,0.272,0.167,0.549,0.318,0.785c0.272,0.428,0.296,0.945-0.083,1.072c-0.528,0.177-1.146,0.374-1.657,0.258
			c-1.532-0.345-2.868,0.48-3.102,2.04c-0.051,0.347-0.119,0.709-0.271,1.02c-0.825,1.689-0.672,3.421-0.326,5.186
			c0.178,0.924,0.235,1.869,0.365,2.802c0.062,0.452,0.175,0.898,0.25,1.349c0.051,0.305,0.154,0.634,0.098,0.925
			c-0.186,0.973-0.822,1.905-0.2,2.931c-0.234,1.11,0.235,2.13,0.537,3.129c0.368,1.228,0.199,2.439,0.19,3.646
			c-0.005,0.579-0.033,1.118,0.133,1.677c0.072,0.239,0.089,0.516,0.053,0.763c-0.087,0.578-0.222,1.149-0.351,1.79
			c-0.472-0.074-1.069-0.013-1.469-0.267c-0.862-0.544-1.772-0.624-2.727-0.604c-0.588,0.012-1.15-0.059-1.634-0.437
			c-0.318-0.248-0.657-0.227-0.993-0.04c-0.418,0.232-0.819,0.266-1.274,0.05c-0.196-0.094-0.539-0.075-0.721,0.04
			c-0.516,0.33-0.934,0.844-1.479,1.081c-0.632,0.275-0.649,0.709-0.556,1.209c0.173,0.929,0.125,1.837,0.071,2.782
			c-0.099,1.727,0.567,2.277,1.9,2.428c0.7,0.079,1.411,0.094,2.117,0.083c0.244-0.003,0.674-0.138,0.693-0.261
			c0.042-0.295-0.019-0.696-0.206-0.907c-0.252-0.288-0.664-0.436-1.043-0.666c0.014-0.166,0.03-0.374,0.046-0.57
			c0.327,0.149,0.593,0.355,0.883,0.392c1.096,0.144,2.2,0.241,3.302,0.341c0.684,0.062,1.437-0.066,2.034,0.186
			c0.725,0.308,1.432,0.42,2.189,0.516c1.877,0.237,3.759-1.57,3.609-3.466c-0.057-0.727-0.091-1.525,0.151-2.186
			c0.279-0.757,0.415-1.471,0.411-2.268c-0.003-1.283,0.096-2.564,0.151-3.868c0.667,0.105,1.267,0.238,1.874,0.284
			c1.187,0.09,2.376,0.358,3.567,0.02c0.131-0.036,0.3-0.011,0.43,0.043c0.422,0.171,0.835,0.37,1.353,0.604
			c-0.149,0.189-0.285,0.388-0.449,0.56c-0.52,0.549-1.122,1.036-1.562,1.642c-1.059,1.461-2.007,3-3.072,4.453
			c-0.416,0.567-0.76,1.144-0.737,1.818c0.02,0.629,0.214,1.261,0.388,1.877c0.038,0.133,0.315,0.272,0.489,0.282
			c0.665,0.039,1.334,0.031,2,0.031c0.553,0,1.108-0.05,1.658-0.013c1.229,0.087,2.452,0.219,3.644-0.234
			c0.327-0.123,0.631-0.291,0.597-0.706c-0.032-0.404-0.234-0.706-0.645-0.817c-0.411-0.113-0.83-0.2-1.246-0.309
			c-0.391-0.103-0.777-0.22-1.178-0.332c0.035-0.175,0.101-0.308,0.078-0.421c-0.151-0.742,0.223-1.155,0.8-1.553
			c0.393-0.271,0.677-0.713,0.969-1.106c0.34-0.46,0.579-1.007,0.965-1.418c0.564-0.601,1.372-0.976,1.675-1.824
			c0.021-0.06,0.106-0.102,0.169-0.138c1.015-0.599,1.424-1.593,1.674-2.659c0.188-0.792-0.359-2.337-0.96-2.605
			c-0.98-0.438-1.993-0.808-3.012-1.147c-0.79-0.265-1.618-0.413-2.414-0.662c-0.721-0.226-1.412-0.559-2.138-0.771
			c-0.637-0.188-1.304-0.275-1.908-0.396c-0.115-0.318-0.227-0.589-0.311-0.866c-0.06-0.189-0.147-0.405-0.109-0.588
			c0.185-0.911,0-1.772-0.276-2.63c-0.236-0.737-0.037-1.43,0.268-2.097c0.372-0.805,0.785-1.592,1.145-2.401
			c0.153-0.343,0.354-0.448,0.635-0.223c0.272,0.215,0.517,0.478,0.732,0.752c0.245,0.309,0.476,0.517,0.887,0.272
			c0.09-0.053,0.259-0.051,0.358-0.002c1.007,0.476,2.017,0.948,3.003,1.46c0.746,0.388,1.492,0.29,1.984-0.379
			c0.282-0.387,0.485-0.832,0.74-1.238c0.133-0.213,0.282-0.426,0.462-0.601c0.586-0.568,1.21-1.098,1.778-1.683
			c0.773-0.795,0.779-1.544,0.054-2.315c-0.086,0.091-0.157,0.199-0.256,0.264c-0.112,0.074-0.248,0.109-0.375,0.162
			C33.082,9.584,33.062,9.441,33.07,9.3c0.01-0.239,0.033-0.478,0.062-0.844c0.803-0.043,1.621-0.085,2.444-0.129
			c0.051-0.141,0.122-0.273,0.142-0.413c0.028-0.186,0.09-0.487,0.004-0.545c-0.222-0.151-0.516-0.271-0.782-0.271
			c-0.876-0.005-1.753,0.078-2.629,0.068C31.459,7.156,30.59,6.82,29.7,7.387C30.569,7.783,29.323,8.11,29.784,8.667z"/>
		<path fill-rule="evenodd" clip-rule="evenodd" fill="#2D96FB" d="M35.723,7.369c-0.222-0.151-0.516-0.271-0.782-0.271
			c-0.876-0.005-1.753,0.078-2.629,0.068C31.459,7.156,30.59,6.82,29.7,7.387c0.869,0.396-0.377,0.723,0.084,1.28
			c-1.021,0.401-1.973,0.807-2.945,1.146c-0.996,0.348-1.933,0.271-2.699-0.569c-0.389-0.426-0.797-0.835-1.125-1.18
			c0.085-0.097,0.271-0.261,0.399-0.46c0.241-0.375,0.362-0.964,0.693-1.113c0.57-0.259,0.412-0.547,0.29-0.923
			c-0.044-0.138-0.121-0.304-0.082-0.423c0.157-0.472,0.358-0.931,0.556-1.436c0.099,0.113,0.223,0.256,0.338,0.388
			c0.469-1.063,0.354-1.738-0.429-2.526c-0.067-0.069-0.061-0.208-0.101-0.309c-0.031-0.079-0.064-0.194-0.124-0.217
			c-0.678-0.247-1.168-0.898-1.981-0.87c-0.347,0.013-0.723-0.043-1.046-0.169c-0.7-0.271-1.343,0.042-1.977,0.183
			c-0.381,0.085-0.834,0.451-0.995,0.809c-0.486,1.069-0.757,2.212-0.601,3.406c0.035,0.272,0.167,0.549,0.318,0.785
			c0.272,0.428,0.296,0.945-0.083,1.072c-0.528,0.177-1.146,0.374-1.657,0.258c-1.532-0.345-2.868,0.48-3.102,2.04
			c-0.051,0.347-0.119,0.709-0.271,1.02c-0.825,1.689-0.672,3.421-0.326,5.186c0.178,0.924,0.235,1.869,0.365,2.802
			c0.062,0.452,0.175,0.898,0.25,1.349c0.051,0.305,0.154,0.634,0.098,0.925c-0.186,0.973-0.822,1.905-0.2,2.931
			c-0.234,1.11,0.235,2.13,0.537,3.129c0.368,1.228,0.199,2.439,0.19,3.646c-0.005,0.579-0.033,1.118,0.133,1.677
			c0.072,0.239,0.089,0.516,0.053,0.763c-0.087,0.578-0.222,1.149-0.351,1.79c-0.472-0.074-1.069-0.013-1.469-0.267
			c-0.862-0.544-1.772-0.624-2.727-0.604c-0.588,0.012-1.15-0.059-1.634-0.437c-0.318-0.248-0.657-0.227-0.993-0.04
			c-0.418,0.232-0.819,0.266-1.274,0.05c-0.196-0.094-0.539-0.075-0.721,0.04c-0.516,0.33-0.934,0.844-1.479,1.081
			c-0.632,0.275-0.649,0.709-0.556,1.209c0.173,0.929,0.125,1.837,0.071,2.782c-0.099,1.727,0.567,2.277,1.9,2.428
			c0.7,0.079,1.411,0.094,2.117,0.083c0.244-0.003,0.674-0.138,0.693-0.261c0.042-0.295-0.019-0.696-0.206-0.907
			c-0.252-0.288-0.664-0.436-1.043-0.666c0.014-0.166,0.03-0.374,0.046-0.57c0.327,0.149,0.593,0.355,0.883,0.392
			c1.096,0.144,2.2,0.241,3.302,0.341c0.684,0.062,1.437-0.066,2.034,0.186c0.725,0.308,1.432,0.42,2.189,0.516
			c1.877,0.237,3.759-1.57,3.609-3.466c-0.057-0.727-0.091-1.525,0.151-2.186c0.279-0.757,0.415-1.471,0.411-2.268
			c-0.003-1.283,0.096-2.564,0.151-3.868c0.667,0.105,1.267,0.238,1.874,0.284c1.187,0.09,2.376,0.358,3.567,0.02
			c0.131-0.036,0.3-0.011,0.43,0.043c0.422,0.171,0.835,0.37,1.353,0.604c-0.149,0.189-0.285,0.388-0.449,0.56
			c-0.52,0.549-1.122,1.036-1.562,1.642c-1.059,1.461-2.007,3-3.072,4.453c-0.416,0.567-0.76,1.144-0.737,1.818
			c0.02,0.629,0.214,1.261,0.388,1.877c0.038,0.133,0.315,0.272,0.489,0.282c0.665,0.039,1.334,0.031,2,0.031
			c0.553,0,1.108-0.05,1.658-0.013c1.229,0.087,2.452,0.219,3.644-0.234c0.327-0.123,0.631-0.291,0.597-0.706
			c-0.032-0.404-0.234-0.706-0.645-0.817c-0.411-0.113-0.83-0.2-1.246-0.309c-0.391-0.103-0.777-0.22-1.178-0.332
			c0.035-0.175,0.101-0.308,0.078-0.421c-0.151-0.742,0.223-1.155,0.8-1.553c0.393-0.271,0.677-0.713,0.969-1.106
			c0.34-0.46,0.579-1.007,0.965-1.418c0.564-0.601,1.372-0.976,1.675-1.824c0.021-0.06,0.106-0.102,0.169-0.138
			c1.015-0.599,1.424-1.593,1.674-2.659c0.188-0.792-0.359-2.337-0.96-2.605c-0.98-0.438-1.993-0.808-3.012-1.147
			c-0.79-0.265-1.618-0.413-2.414-0.662c-0.721-0.226-1.412-0.559-2.138-0.771c-0.637-0.188-1.304-0.275-1.908-0.396
			c-0.115-0.318-0.227-0.589-0.311-0.866c-0.06-0.189-0.147-0.405-0.109-0.588c0.185-0.911,0-1.772-0.276-2.63
			c-0.236-0.737-0.037-1.43,0.268-2.097c0.372-0.805,0.785-1.592,1.145-2.401c0.153-0.343,0.354-0.448,0.635-0.223
			c0.272,0.215,0.517,0.478,0.732,0.752c0.245,0.309,0.476,0.517,0.887,0.272c0.09-0.053,0.259-0.051,0.358-0.002
			c1.007,0.476,2.017,0.948,3.003,1.46c0.746,0.388,1.492,0.29,1.984-0.379c0.282-0.387,0.485-0.832,0.74-1.238
			c0.133-0.213,0.282-0.426,0.462-0.601c0.586-0.568,1.21-1.098,1.778-1.683c0.773-0.795,0.779-1.544,0.054-2.315
			c-0.086,0.091-0.157,0.199-0.256,0.264c-0.112,0.074-0.248,0.109-0.375,0.162C33.082,9.584,33.062,9.441,33.07,9.3
			c0.01-0.239,0.033-0.478,0.062-0.844c0.803-0.043,1.621-0.085,2.444-0.129c0.051-0.141,0.122-0.273,0.142-0.413
			C35.747,7.729,35.809,7.427,35.723,7.369z M29.102,13.044c-0.396-0.446-0.899-1.012-1.406-1.582l3.33,0.021
			c0.199-0.139,0.416-0.253,0.696-0.282C30.956,11.854,30.588,12.984,29.102,13.044z M32.818,9.291
			c-0.011,0.049-0.231,0.061-0.355,0.091c0.359-0.378,0.171-0.608-0.077-0.906c0.145,0.059,0.378,0.084,0.415,0.183
			C32.872,8.849,32.853,9.084,32.818,9.291z"/>
		<path fill-rule="evenodd" clip-rule="evenodd" fill="#FFFFFF" d="M32.463,9.382c0.359-0.378,0.171-0.608-0.077-0.906
			c0.145,0.059,0.378,0.084,0.415,0.183c0.071,0.19,0.052,0.425,0.018,0.632C32.808,9.34,32.587,9.352,32.463,9.382z"/>
	</g>
</g>
</svg>
