<?xml version="1.0" encoding="utf-8"?>
<!-- Generator: Adobe Illustrator 16.0.0, SVG Export Plug-In . SVG Version: 6.00 Build 0)  -->
<!DOCTYPE svg PUBLIC "-//W3C//DTD SVG 1.1//EN" "http://www.w3.org/Graphics/SVG/1.1/DTD/svg11.dtd">
<svg version="1.1" id="Layer_1" xmlns="http://www.w3.org/2000/svg" xmlns:xlink="http://www.w3.org/1999/xlink" x="0px" y="0px"
	 width="40px" height="40px" viewBox="0 0 40 40" enable-background="new 0 0 40 40" xml:space="preserve">
<g id="UCnyId.tif">
	<g>
		<path fill="#2D96FB" d="M0,7.61c0.216-1.255,0.395-2.52,0.66-3.765c0.237-1.118,0.612-1.3,1.664-0.979
			c4.115,1.254,8.345,1.465,12.583,1.118c2.365-0.194,4.698-0.788,7.039-1.233c0.795-0.151,1.184,0.234,1.324,0.91
			c0.232,1.111,0.49,2.23,0.572,3.357c0.34,4.606-0.297,9.042-2.656,13.094c-1.667,2.863-3.883,5.143-7.243,5.931
			c-3.181,0.748-5.949-0.196-8.316-2.355c-3.094-2.819-4.575-6.472-5.278-10.503C0.22,12.442,0.116,11.695,0,10.949
			C0,9.836,0,8.724,0,7.61z M7.408,16.943c-0.826,1.611-0.034,4.008,1.693,5.25c1.931,1.39,4.635,1.151,6.34-0.504
			c1.066-1.033,2.001-3.43,1.08-4.711C13.499,18.782,10.481,18.818,7.408,16.943z M7.463,13.09c0.024-0.071,0.049-0.141,0.074-0.211
			c0.319,0,0.64,0.016,0.959-0.003c0.663-0.04,0.959-0.414,0.801-1.05c-0.223-0.897-0.767-1.599-1.645-1.89
			c-0.838-0.278-1.677-0.097-2.375,0.473c-0.688,0.562-0.748,1.348-0.006,1.836C5.91,12.666,6.725,12.818,7.463,13.09z
			 M16.308,13.072c0.799-0.223,1.543-0.304,2.156-0.631c0.958-0.512,0.928-1.57,0.028-2.186c-0.96-0.657-2.306-0.621-3.016,0.251
			c-0.42,0.517-0.567,1.257-0.836,1.896C15.195,12.625,15.752,12.849,16.308,13.072z"/>
		<path fill="#2D96FB" d="M39.521,21.487c-0.291,1.566-0.479,3.162-0.895,4.694c-0.967,3.54-2.641,6.685-5.691,8.892
			c-3.822,2.766-8.391,2.418-11.832-0.812c-2.252-2.115-3.647-4.729-4.516-7.532c1.485-1.233,2.911-2.417,4.377-3.635
			c1.869,0.798,3.105,0.419,3.799-1.237c0.367-0.878,0.092-1.341-0.865-1.413c-0.402-0.03-0.811-0.004-1.15-0.004
			c0.629-1.839,1.229-3.651,1.891-5.441c0.066-0.185,0.49-0.328,0.754-0.338c2.275-0.084,4.561-0.033,6.822-0.227
			c1.643-0.14,3.27-0.542,4.883-0.918c1.186-0.275,1.549-0.157,1.797,1.04c0.258,1.247,0.422,2.513,0.627,3.77
			C39.521,19.379,39.521,20.434,39.521,21.487z M32.131,32.191c0.793-1.739-0.051-4.088-1.848-5.308
			c-2.002-1.358-4.652-1.07-6.316,0.688c-1.285,1.359-1.744,3.555-0.959,4.578C26.037,30.312,29.062,30.342,32.131,32.191z
			 M31.936,20.31c-0.012,0.048-0.021,0.095-0.031,0.142c-0.291,0-0.586-0.032-0.873,0.006c-0.748,0.099-0.994,0.5-0.789,1.23
			c0.453,1.606,2.262,2.325,3.701,1.47c1.053-0.623,1.076-1.777-0.021-2.317C33.32,20.541,32.602,20.479,31.936,20.31z"/>
	</g>
</g>
</svg>
